# xmcd CD database file
# Copyright 1993-1996 (C) Ti Kan
#
# Track frame offsets:
#    183
#    23278
#    39275
#    51673
#    60515
#    73185
#    91113
#    103760
#    115343
#    132753
#    144950
#    158598
#    178645
#    189480
#    202268
#    217700
#    234028
#    248048
#    258478
#    278513
#
# Disc length: 3858 seconds
#
# Revision: 0
# Processed by: cddbd v1.4b41PL1 Copyright (c) Steve Scherf et al.
# Submitted via: MyCDplayer 2.1.4  (wjohn@fix.net)
#
DISCID=0a0f1014
DTITLE=Red Sovine - The Best Of Red Sovine
DYEAR=1900
DGENRE=
TTITLE0=Teddy Bear
TTITLE1=Daddy's Girl
TTITLE2=Lay Down Sally
TTITLE3=Truck Drivin' Son Of A Gun
TTITLE4=Colorado Kool-Aid
TTITLE5=Giddy-Up-Go
TTITLE6=Ole Rivers
TTITLE7=The Days Of Me And You
TTITLE8=Little Rosa
TTITLE9=I Didn't Jump The Fence
TTITLE10=It'll Come Back
TTITLE11=Little Joe
TTITLE12=I Know You're Married (but I love you still)
TTITLE13=Last Goodbye
TTITLE14=Phantom 309
TTITLE15=Roses For Mama
TTITLE16=18 Wheels A Hummin' Home Sweet Home
TTITLE17=Anything Leaving Town Today
TTITLE18=Daddy
TTITLE19=Woman Behind The Man Behind The Wheel
EXTD=
EXTT0=
EXTT1=
EXTT2=
EXTT3=
EXTT4=
EXTT5=
EXTT6=
EXTT7=
EXTT8=
EXTT9=
EXTT10=
EXTT11=
EXTT12=
EXTT13=
EXTT14=
EXTT15=
EXTT16=
EXTT17=
EXTT18=
EXTT19=
PLAYORDER=
